<svg width="635" height="211" viewBox="0 0 635 211" fill="none" xmlns="http://www.w3.org/2000/svg">
<path d="M78.6 64C77.1 63.9 75.7 63.9 74.4 63.9C65.1 63.9 57.1 66.3 50.1 71.3C43.2 76.3 37.8 83.5 33.9 90.8H33V67.9H0V207.1H34.8V132.4C34.8 129.9 35.3 126.5 36.2 122.3C37.2 118.1 39 113.9 41.7 109.9C44.4 105.9 48.2 102.4 53 99.5C57.8 96.6 64.2 95.2 72.1 95.2C73.6 95.2 75 95.3 76.7 95.5C78.4 95.7 80.6 96.1 82.4 96.7V64.9C81.6 64.4 80.2 64.1 78.6 64Z" fill="white"/>
<path d="M106 183.9C117 182.8 128.6 181.5 140.7 179.9V67.9H106V183.9Z" fill="white"/>
<path d="M123.1 41.6C129.5 41.6 134.8 39.6 139.2 35.7C143.5 31.7 145.7 26.8 145.7 20.8C145.7 14.8 143.5 9.79999 139.2 5.89999C134.9 1.89999 129.5 0 123.1 0C116.7 0 111.5 2.09998 107.3 6.19998C103.1 10.3 101.1 15.2 101.1 20.8C101.1 26.4 103.2 31.3 107.3 35.4C111.5 39.5 116.7 41.6 123.1 41.6Z" fill="white"/>
<path d="M182.3 173.2C186 172.5 189.7 171.8 193.4 171.1C191.9 169.7 190.6 168.2 189.4 166.6L182.3 173.2Z" fill="white"/>
<path d="M187.1 135.8C191 138.8 195.3 141.2 200.3 143C205.2 144.8 210.3 146.3 215.5 147.5C226.1 150 234.1 152.5 239.4 155C241.7 156.1 243.5 157.5 244.8 159.3C255.9 156.3 267.2 153.1 278.5 149.5C278.2 148.7 277.8 148 277.4 147.3C274.7 142.6 271.2 138.6 266.8 135.4C262.4 132.2 257.6 129.7 252.3 127.7C247 125.7 241.7 124.2 236.5 123.1C226.7 120.8 219.2 118.5 214.1 116.3C209 114.1 206.4 110.3 206.4 104.9C206.4 99.5 208.7 95.6 213.3 93.3C217.9 91 223 89.8 228.6 89.8C235 89.8 240.8 91.3 246.3 94.3C251.7 97.3 255.9 100.8 259 104.9L281.6 84.9C276 77.8 268.4 72.5 258.9 69C249.4 65.5 239.6 63.8 229.5 63.8C222.6 63.8 215.8 64.7 209.3 66.4C202.7 68.1 196.9 70.8 191.6 74.4C186.4 78 182.2 82.6 179 88.2C175.8 93.8 174.2 100.4 174.2 108.2C174.2 114.8 175.4 120.3 177.7 124.7C180.1 129.1 183.2 132.8 187.1 135.8Z" fill="white"/>
<path d="M387.5 123.5H338.1C338.9 113.7 342.9 105.6 350.1 99.3C357.3 93 366.2 89.9 376.6 89.9C382.2 89.9 387.1 90.8 391.2 92.7C395.4 94.5 399.4 98 399.4 98C408 93.2 416.4 88.1 424.8 82.8C418.8 76.6 411.8 71.9 403.6 68.7C395.4 65.5 386.5 63.9 376.8 63.9C366.4 63.9 356.7 65.7 347.7 69.3C338.7 72.9 331 77.9 324.4 84.4C317.8 90.9 312.7 98.7 308.9 107.8C305.1 116.9 303.3 127.1 303.3 138.3C303.3 139.3 303.3 140.3 303.4 141.3C318.2 136.1 322.1 134.9 336.8 128.5C337 128.3 390.3 123.5 387.5 123.5Z" fill="white"/>
<path d="M481.7 50C478.4 52.7 475.1 55.4 471.8 58C466.9 70 457 89 439.6 108.3C438.7 108.9 438.4 109.5 437.9 110.2C411.7 138.1 368.6 166.2 298.8 174.4C197.7 186.3 157.8 189.4 101 189.2C70.0001 191.8 44.5 192.5 26.8 192.5C59 193.3 83.4 193.8 106.3 193.9V207.1H141.1V193.6C150.3 193.3 160.6 192.9 171 192.3C177 197.6 183.9 201.9 192.1 205C202.3 209 212.8 210.9 223.6 210.9C231.1 210.9 238.4 210.1 245.4 208.4C252.4 206.8 258.6 204.1 263.9 200.4C269.2 196.7 273.4 192 276.6 186.1C277.3 184.8 277.9 183.4 278.4 182C286.6 181.1 295.2 180.1 304.3 179C307.4 178.6 310.5 178.2 313.5 177.8C316.6 182.9 320.3 187.5 324.5 191.5C331.2 197.7 339 202.5 348.1 205.8C357.2 209.1 367.1 210.9 377.9 210.9C403.9 210.9 423.8 201.6 437.5 183.1L414.3 164.6C410.4 170.2 405.5 174.6 399.5 177.8C393.5 181 386.2 182.6 377.5 182.6C372.5 182.6 367.7 181.7 363 180C358.4 178.3 354.2 175.9 350.6 172.9C349.7 172.2 348.9 171.4 348.1 170.6C368.6 164.8 386.1 156.7 401 148.5H443.5C443.7 146.7 444 145.3 444 143.8C444 142.3 444 140.7 444 139.2C444 131 443.2 123.5 441.7 116.7C473.9 83.5 481.7 50 481.7 50Z" fill="white"/>
<path d="M541.3 177.7V206.1H526.9V179.9C526.9 171.9 523.3 168.2 517.5 168.2C511.1 168.2 506.5 172.4 506.5 181.2V206.1H492.1V179.9C492.1 171.9 488.7 168.2 482.7 168.2C476.3 168.2 471.8 172.4 471.8 181.2V206.1H457.4V156.5H471.1V162.2C474.8 158 480.3 155.7 486.7 155.7C493.6 155.7 499.5 158.4 503 163.8C507 158.7 513.4 155.7 520.9 155.7C532.9 155.8 541.3 162.6 541.3 177.7Z" fill="white"/>
<path d="M568.2 186.7L561.3 193.5V206.1H546.9V137.7H561.3V176.4L582.3 156.5H599.4L578.8 177.5L601.3 206.1H583.9L568.2 186.7Z" fill="white"/>
<path d="M634.1 203.7C631.2 205.8 626.8 206.8 622.4 206.8C610.7 206.8 603.9 200.8 603.9 189V168.6H596.2V157.5H603.9V145.4H618.3V157.5H630.6V168.6H618.3V188.8C618.3 193 620.6 195.3 624.5 195.3C626.6 195.3 628.7 194.7 630.3 193.5L634.1 203.7Z" fill="white"/>
</svg>
